HIERARCHY
ROOT Hip
{
	OFFSET	0.00  0.00  0.00 
	CHANNELS 6 Xposition Yposition Zposition Xrotation Zrotation Yrotation
	JOINT Abdomen
	{
		OFFSET	0.039181 5.637571 0.560720
		CHANNELS 3 Xrotation Zrotation Yrotation
		JOINT Chest
		{
			OFFSET	-0.136063 7.190207 -0.124363
			CHANNELS 3 Xrotation Zrotation Yrotation
			JOINT Neck
			{
				OFFSET	0.193764 10.560151 -1.259468
				CHANNELS 3 Xrotation Zrotation Yrotation
				JOINT Head
				{
					OFFSET	-0.096882 0.362727 0.622109
					CHANNELS 3 Xrotation Zrotation Yrotation
					JOINT LeftEye
					{
						OFFSET	1.356350 5.062673 4.221998
						CHANNELS 3 Zrotation Yrotation Xrotation
						End Site
						{
							OFFSET 0.000000 0.000000 0.871939
						}
					}
					JOINT RightEye
					{
						OFFSET	-1.356350 5.062673 4.221998
						CHANNELS 3 Zrotation Yrotation Xrotation
						End Site
						{
							OFFSET 0.000000 0.000000 0.871939
						}
					}
				}
			}
			JOINT RightCollar
			{
				OFFSET	-3.778404 4.940989 0.193764
				CHANNELS 3 Yrotation Zrotation Xrotation
				JOINT RightShoulder
				{
					OFFSET	-2.615818 1.356350 -0.484411
					CHANNELS 3 Zrotation Yrotation Xrotation
					JOINT RightForearm
					{
						OFFSET	-11.432094 0.484410 -1.937643
						CHANNELS 3 Yrotation Zrotation Xrotation
						JOINT RightHand
						{
							OFFSET	-10.657035 -0.096881 0.581293
							CHANNELS 3 Zrotation Yrotation Xrotation
							JOINT RightThumb1
							{
								OFFSET	-0.678175 -0.581297 0.968821
								CHANNELS 3 Zrotation Yrotation Xrotation
								JOINT RightThumb2
								{
									OFFSET	-0.968823 -0.484410 0.484411
									CHANNELS 3 Zrotation Yrotation Xrotation
									JOINT RightThumb3
									{
										OFFSET	-0.929680 -0.497680 0.055639
										CHANNELS 3 Zrotation Yrotation Xrotation
										End Site
										{
											OFFSET -1.097190 -0.513867 -0.001182
										}
									}
								}
							}
							JOINT RightIndex1
							{
								OFFSET	-3.003348 0.581291 1.259468
								CHANNELS 3 Zrotation Yrotation Xrotation
								JOINT RightIndex2
								{
									OFFSET	-1.468153 -0.266718 0.069755
									CHANNELS 3 Zrotation Yrotation Xrotation
									JOINT RightIndex3
									{
										OFFSET	-0.944212 -0.382684 -0.083028
										CHANNELS 3 Zrotation Yrotation Xrotation
										End Site
										{
											OFFSET -0.675657 -0.558718 0.000000
										}
									}
								}
							}
							JOINT RightMid1
							{
								OFFSET	-3.197113 0.581291 0.290646
								CHANNELS 3 Zrotation Yrotation Xrotation
								JOINT RightMid2
								{
									OFFSET	-1.550115 -0.387529 0.000000
									CHANNELS 3 Zrotation Yrotation Xrotation
									JOINT RightMid3
									{
										OFFSET	-0.731071 -0.803926 0.018214
										CHANNELS 3 Zrotation Yrotation Xrotation
										End Site
										{
											OFFSET -0.366992 -0.937043 0.083406
										}
									}
								}
							}
							JOINT RightRing1
							{
								OFFSET	-3.197113 0.387529 -0.678175
								CHANNELS 3 Zrotation Yrotation Xrotation
								JOINT RightRing2
								{
									OFFSET	-1.259466 -0.484410 0.096882
									CHANNELS 3 Zrotation Yrotation Xrotation
									JOINT RightRing3
									{
										OFFSET	-0.551552 -0.801218 0.111221
										CHANNELS 3 Zrotation Yrotation Xrotation
										End Site
										{
											OFFSET -0.245208 -0.810324 0.000000
										}
									}
								}
							}
							JOINT RightPinky1
							{
								OFFSET	-2.809584 -0.096881 -1.453232
								CHANNELS 3 Zrotation Yrotation Xrotation
								JOINT RightPinky2
								{
									OFFSET	-0.984323 -0.316034 0.039140
									CHANNELS 3 Zrotation Yrotation Xrotation
									JOINT RightPinky3
									{
										OFFSET	-0.468908 -0.555906 0.057742
										CHANNELS 3 Zrotation Yrotation Xrotation
										End Site
										{
											OFFSET -0.479664 -0.640198 0.044081
										}
									}
								}
							}
						}
					}
				}
			}
			JOINT LeftCollar
			{
				OFFSET	3.972168 4.940989 0.193764
				CHANNELS 3 Yrotation Zrotation Xrotation
				JOINT LeftShoulder
				{
					OFFSET	2.615818 1.356350 -0.484411
					CHANNELS 3 Zrotation Yrotation Xrotation
					JOINT LeftForearm
					{
						OFFSET	11.432094 0.484410 -1.937643
						CHANNELS 3 Yrotation Zrotation Xrotation
						JOINT LeftHand
						{
							OFFSET	10.657035 -0.096881 0.581293
							CHANNELS 3 Zrotation Yrotation Xrotation
							JOINT LeftThumb1
							{
								OFFSET	0.678175 -0.581297 0.968821
								CHANNELS 3 Zrotation Yrotation Xrotation
								JOINT LeftThumb2
								{
									OFFSET	0.968823 -0.484410 0.484411
									CHANNELS 3 Zrotation Yrotation Xrotation
									JOINT LeftThumb3
									{
										OFFSET	0.929680 -0.497680 0.055639
										CHANNELS 3 Zrotation Yrotation Xrotation
										End Site
										{
											OFFSET 1.097190 -0.513867 -0.001182
										}
									}
								}
							}
							JOINT LeftIndex1
							{
								OFFSET	3.003348 0.581291 1.259468
								CHANNELS 3 Zrotation Yrotation Xrotation
								JOINT LeftIndex2
								{
									OFFSET	1.468153 -0.266718 0.069755
									CHANNELS 3 Zrotation Yrotation Xrotation
									JOINT LeftIndex3
									{
										OFFSET	0.944212 -0.382684 -0.083028
										CHANNELS 3 Zrotation Yrotation Xrotation
										End Site
										{
											OFFSET 0.675657 -0.558718 0.000000
										}
									}
								}
							}
							JOINT LeftMid1
							{
								OFFSET	3.197113 0.581291 0.290646
								CHANNELS 3 Zrotation Yrotation Xrotation
								JOINT LeftMid2
								{
									OFFSET	1.550115 -0.387529 0.000000
									CHANNELS 3 Zrotation Yrotation Xrotation
									JOINT LeftMid3
									{
										OFFSET	0.731071 -0.803926 0.018214
										CHANNELS 3 Zrotation Yrotation Xrotation
										End Site
										{
											OFFSET 0.366992 -0.937043 0.083406
										}
									}
								}
							}
							JOINT LeftRing1
							{
								OFFSET	3.197113 0.387529 -0.678175
								CHANNELS 3 Zrotation Yrotation Xrotation
								JOINT LeftRing2
								{
									OFFSET	1.259466 -0.484410 0.096882
									CHANNELS 3 Zrotation Yrotation Xrotation
									JOINT LeftRing3
									{
										OFFSET	0.551552 -0.801218 0.111221
										CHANNELS 3 Zrotation Yrotation Xrotation
										End Site
										{
											OFFSET 0.245208 -0.810324 0.000000
										}
									}
								}
							}
							JOINT LeftPinky1
							{
								OFFSET	2.809584 -0.096881 -1.453232
								CHANNELS 3 Zrotation Yrotation Xrotation
								JOINT LeftPinky2
								{
									OFFSET	0.984323 -0.316034 0.039140
									CHANNELS 3 Zrotation Yrotation Xrotation
									JOINT LeftPinky3
									{
										OFFSET	0.468908 -0.555906 0.057742
										CHANNELS 3 Zrotation Yrotation Xrotation
										End Site
										{
											OFFSET 0.479664 -0.640198 0.044081
										}
									}
								}
							}
						}
					}
				}
			}
		}
	}
	JOINT RightThigh
	{
		OFFSET	-3.875286 0.717509 0.339475
		CHANNELS 3 Xrotation Zrotation Yrotation
		JOINT RightShin
		{
			OFFSET	-0.434323 -20.673391 0.003424
			CHANNELS 3 Xrotation Zrotation Yrotation
			JOINT RightFoot
			{
				OFFSET	-0.063555 -15.653578 -0.075717
				CHANNELS 3 Xrotation Yrotation Zrotation
				JOINT RightToe
				{
					OFFSET	-0.513669 -2.790361 5.061637
					CHANNELS 3 Xrotation Yrotation Zrotation
					End Site
					{
						OFFSET 0.000000 -0.280183 2.993164
					}
				}
			}
		}
	}
	JOINT LeftThigh
	{
		OFFSET	3.875286 0.717509 0.339475
		CHANNELS 3 Xrotation Zrotation Yrotation
		JOINT LeftShin
		{
			OFFSET	0.434323 -20.673391 0.003424
			CHANNELS 3 Xrotation Zrotation Yrotation
			JOINT LeftFoot
			{
				OFFSET	0.063555 -15.653578 -0.075717
				CHANNELS 3 Xrotation Yrotation Zrotation
				JOINT LeftToe
				{
					OFFSET	0.513669 -2.874842 4.946725
					CHANNELS 3 Xrotation Yrotation Zrotation
					End Site
					{
						OFFSET 0.000000 -0.195702 3.108076
					}
				}
			}
		}
	}
}
MOTION
Frames:     4
Frame Time: 0.033333
0.000000 41.950737 0.000000 2.118330 -5.269880 -40.815201 4.755000 3.503570 2.938150 14.565100 8.170060 4.403360 0.000000 0.000000 0.000000 -24.622400 -6.878220 -2.309150 0.000000 0.000000 0.000000 0.000000 0.000000 0.000000 -3.027940 -21.907301 1.700040 88.868904 4.759843 2.482540 46.052773 0.057006 -0.453361 -19.756218 -18.627001 5.183219 -2.196803 8.088476 9.363434 -5.993100 8.200828 -17.027071 -2.735254 11.533928 -17.444088 31.970200 18.932699 5.881620 -8.737162 9.822696 -5.878980 21.234838 3.416048 -6.315852 34.696049 23.527008 15.577812 8.244953 -1.502700 0.722675 -12.838020 -2.429856 5.230082 35.942455 25.760197 18.217253 -0.156757 -5.465929 4.370303 -17.719269 -3.972915 -0.926374 34.889076 26.244684 16.543980 7.752715 -4.393883 3.036627 4.441531 -3.901016 1.855662 2.901660 14.272500 0.318671 -93.443024 6.098092 23.417906 -41.658070 -0.221574 -0.458321 14.939881 29.225805 9.185894 1.301079 -8.886789 9.164861 4.075468 -8.414250 -17.094839 14.988010 -12.308553 -17.893410 -10.289900 -19.533600 6.217660 -11.117106 -10.005515 -5.939189 1.975947 -3.570157 -6.428790 5.714611 -17.569624 8.502396 -0.351563 0.000000 0.000000 -21.667566 1.148763 4.187686 -36.830936 -25.705244 18.217213 -0.736324 5.381598 4.224761 16.871576 3.912536 -1.093365 -34.376259 -25.747744 16.095236 -8.641175 4.276957 2.914167 -5.330077 3.798435 1.717381 -2.933352 8.723188 -21.625746 6.326025 0.161148 -0.017574 3.730576 -11.116961 0.062224 -0.000457 0.016384 -0.175016 -17.826530 15.690226 9.094447 62.928772 -0.272417 0.118966 34.793335 14.041879 -9.894410 0.000000 0.000000 0.000000 
-0.979827 42.122555 1.089672 2.115590 -4.391570 -42.362301 4.049820 3.331540 3.585380 14.375400 7.835960 4.643270 0.000000 0.000000 0.000000 -20.586599 -7.740750 -1.501070 0.000000 0.000000 0.000000 0.000000 0.000000 0.000000 -3.209740 -21.552200 1.476930 87.782898 4.943911 6.042518 46.404114 -0.123245 -0.391274 -19.154610 -18.732328 5.242322 -2.196803 8.088476 9.363434 -5.993100 8.200828 -17.027071 -2.735254 11.533928 -17.444088 31.970200 18.932699 5.881620 -8.737162 9.822696 -5.878980 21.234838 3.416048 -6.315852 34.696049 23.527008 15.577812 8.244953 -1.502700 0.722675 -12.838020 -2.429856 5.230082 35.942455 25.760197 18.217253 -0.156757 -5.465929 4.370303 -17.719269 -3.972915 -0.926374 34.889076 26.244684 16.543980 7.752715 -4.393883 3.036627 4.441531 -3.901016 1.855662 3.448520 14.440300 0.002734 -94.266258 9.570601 19.797398 -42.009647 -0.213915 -0.460138 12.057706 30.050161 9.083912 1.301079 -8.886789 9.164861 4.075468 -8.414250 -17.094839 14.988010 -12.308553 -17.893410 -10.289900 -19.533600 6.217660 -11.117106 -10.005515 -5.939189 1.975947 -3.570157 -6.428790 5.714611 -17.569624 8.502396 -0.351563 0.000000 0.000000 -21.667566 1.148763 4.187686 -36.830936 -25.705244 18.217213 -0.736324 5.381598 4.224761 16.871576 3.912536 -1.093365 -34.376259 -25.747744 16.095236 -8.641175 4.276957 2.914167 -5.330077 3.798435 1.717381 -1.911606 7.876701 -21.021547 7.556806 0.161797 -0.020812 2.528404 -10.789429 -1.190965 -0.000457 0.016384 -0.175016 -18.874016 15.335805 10.560164 56.949078 -0.607277 0.276221 28.688744 15.721483 -10.215102 0.000000 0.000000 0.000000 
-1.934068 42.210480 2.174985 1.936880 -3.337950 -44.067902 3.168880 3.159250 4.227190 14.180800 7.330810 4.842290 0.000000 0.000000 0.000000 -16.361200 -8.607360 -0.826035 0.000000 0.000000 0.000000 0.000000 0.000000 0.000000 -3.575030 -21.024099 1.202400 86.480072 5.099389 9.468587 46.755867 0.054780 -0.460160 -18.467859 -18.907330 5.206298 -2.196803 8.088476 9.363434 -5.993100 8.200828 -17.027071 -2.735254 11.533928 -17.444088 31.970200 18.932699 5.881620 -8.737162 9.822696 -5.878980 21.234838 3.416048 -6.315852 34.696049 23.527008 15.577812 8.244953 -1.502700 0.722675 -12.838020 -2.429856 5.230082 35.942455 25.760197 18.217253 -0.156757 -5.465929 4.370303 -17.719269 -3.972915 -0.926374 34.889076 26.244684 16.543980 7.752715 -4.393883 3.036627 4.441531 -3.901016 1.855662 3.814550 14.604200 -0.271819 -95.590408 13.161274 15.917966 -42.361378 -0.155083 -0.445387 8.689166 30.910923 8.961790 1.301079 -8.886789 9.164861 4.075468 -8.414250 -17.094839 14.988010 -12.308553 -17.893410 -10.289900 -19.533600 6.217660 -11.117106 -10.005515 -5.939189 1.975947 -3.570157 -6.428790 5.714611 -17.569624 8.502396 -0.351563 0.000000 0.000000 -21.667566 1.148763 4.187686 -36.830936 -25.705244 18.217213 -0.736324 5.381598 4.224761 16.871576 3.912536 -1.093365 -34.376259 -25.747744 16.095236 -8.641175 4.276957 2.914167 -5.330077 3.798435 1.717381 -1.009572 6.766068 -20.088333 8.962583 0.162171 -0.200226 1.465579 -9.842872 -1.691902 -0.000457 0.016384 -0.175016 -19.931227 14.634307 12.973064 51.325722 -0.419641 0.199045 21.687580 17.046740 -9.951842 0.000000 0.000000 0.000000 
-2.907210 42.226955 3.302790 1.935380 -2.459550 -45.793400 2.464280 2.985540 4.883480 13.993000 6.995320 5.262450 0.000000 0.000000 0.000000 -12.292200 -9.278440 -0.299441 0.000000 0.000000 0.000000 0.000000 0.000000 0.000000 -3.754750 -20.666100 0.985024 84.936340 5.314627 12.559631 47.282978 -0.126094 -0.398189 -17.423313 -18.900871 4.848245 -2.196803 8.088476 9.363434 -5.993100 8.200828 -17.027071 -2.735254 11.533928 -17.444088 31.970200 18.932699 5.881620 -8.737162 9.822696 -5.878980 21.234838 3.416048 -6.315852 34.696049 23.527008 15.577812 8.244953 -1.502700 0.722675 -12.838020 -2.429856 5.230082 35.942455 25.760197 18.217253 -0.156757 -5.465929 4.370303 -17.719269 -3.972915 -0.926374 34.889076 26.244684 16.543980 7.752715 -4.393883 3.036627 4.441531 -3.901016 1.855662 4.362870 14.763500 -0.593095 -96.421272 16.285316 12.393472 -42.712803 -0.198458 -0.463596 5.881085 31.504709 8.912268 1.301079 -8.886789 9.164861 4.075468 -8.414250 -17.094839 14.988010 -12.308553 -17.893410 -10.289900 -19.533600 6.217660 -11.117106 -10.005515 -5.939189 1.975947 -3.570157 -6.428790 5.714611 -17.569624 8.502396 -0.351563 0.000000 0.000000 -21.667566 1.148763 4.187686 -36.830936 -25.705244 18.217213 -0.736324 5.381598 4.224761 16.871576 3.912536 -1.093365 -34.376259 -25.747744 16.095236 -8.641175 4.276957 2.914167 -5.330077 3.798435 1.717381 0.201335 5.533546 -19.336771 10.369744 0.162572 -0.028236 0.437076 -8.805373 -2.130773 -0.000457 0.016384 -0.175016 -21.049370 14.360922 14.980772 45.526478 -0.232269 0.098681 15.116669 17.583424 -9.187922 0.000000 0.000000 0.000000 
